<?xml version="1.0" encoding="utf-8"?>
<!-- Generator: Adobe Illustrator 22.1.0, SVG Export Plug-In . SVG Version: 6.00 Build 0)  -->
<svg version="1.1" id="Camada_1" xmlns="http://www.w3.org/2000/svg" xmlns:xlink="http://www.w3.org/1999/xlink" x="0px" y="0px"
	 viewBox="0 0 327.5 290.8" style="enable-background:new 0 0 327.5 290.8;" xml:space="preserve">
<style type="text/css">
	.st0{fill:#FDD700;}
</style>
<g>
	<path class="st0" d="M320,106.7c-0.5-39.1-16.5-64.9-46.3-82c-30.2-17.3-61.2-16.5-90.1,2.2c-14.2,9.2-23.8,8.9-37.8-0.2
		C115.2,7,82.6,7.7,51.9,27.3c-29.7,19-46.8,47.4-40.8,82.4L320,106.7z"/>
	<path class="st0" d="M40.5,188.3c85.3,0,165.1,0,248.8,0c-14.5,29.8-29.2,47.3-62.6,47.4c-38.8,0.2-74.1,0.4-116.8,0.1
		C75.9,235.7,58.4,220.3,40.5,188.3z"/>
	<path class="st0" d="M9.9,125.1h311.6c-1.2,28.5-1.2,50.9-78.5,47.4c-48.5-2.2-92.8,0.1-146.2,0.1C9.9,172.8,9.9,161.8,9.9,125.1z"
		/>
	<path class="st0" d="M100.6,251.4c43.6,0,85.2,0,128.8,0C170.3,303.3,163.4,304.5,100.6,251.4z"/>
</g>
</svg>
