<?xml version="1.0" encoding="utf-8"?>
<!-- Generator: Adobe Illustrator 22.1.0, SVG Export Plug-In . SVG Version: 6.00 Build 0)  -->
<svg version="1.1" id="Camada_1" xmlns="http://www.w3.org/2000/svg" xmlns:xlink="http://www.w3.org/1999/xlink" x="0px" y="0px"
	 viewBox="0 0 327.5 290.8" style="enable-background:new 0 0 327.5 290.8;" xml:space="preserve">
<style type="text/css">
	.st0{fill:#010202;}
</style>
<g>
	<path class="st0" d="M302.2,103.6c0.8,0,1.4-0.7,1.4-1.5c-0.8-33.9-15-56.4-41.1-71.4c-26.8-15.4-54.4-14.6-80.1,2
		c-12.6,8.2-21.2,7.9-33.6-0.2C121.5,14.9,92.6,15.5,65.3,33c-26.1,16.7-41.2,41.5-36.5,72c0.1,0.7,0.7,1.2,1.4,1.2L302.2,103.6z"/>
	<path class="st0" d="M68,176.1h195.5c5.7,0,9.3,6.2,6.5,11.1c-11.4,19.7-24.6,31-49.9,31.1c-34.5,0.1-65.9,0-103.8,0.1
		c-24,0.1-40.4-10-54.6-30.7C58.4,182.8,62.1,176.1,68,176.1z"/>
	<path class="st0" d="M33.9,119.9l263.7,0c3.7,0,6.7,3.2,6.5,6.9c-1.2,21.4-6.2,35.1-69.4,35.2c-44.6,0.1-80.6,0.1-130,0.1
		c-71.8,0-76.9-8.4-77.2-35.7C27.4,122.9,30.3,119.9,33.9,119.9z"/>
	<path class="st0" d="M112.4,232.1h106.8c1.3,0,1.9,1.6,0.9,2.5c-49,42.9-56.5,43.8-108.6,0C110.4,233.8,111,232.1,112.4,232.1z"/>
</g>
</svg>
