<?xml version="1.0" encoding="utf-8"?>
<!-- Generator: Adobe Illustrator 22.1.0, SVG Export Plug-In . SVG Version: 6.00 Build 0)  -->
<svg version="1.1" xmlns="http://www.w3.org/2000/svg" xmlns:xlink="http://www.w3.org/1999/xlink" x="0px" y="0px"
	 viewBox="0 0 676.9 158.3" style="enable-background:new 0 0 676.9 158.3;" xml:space="preserve">
<style type="text/css">
	.st0{stroke:#000000;stroke-width:6.788541e-02;stroke-miterlimit:10;}
	.st1{fill:#FDD700;}
</style>
<g id="Camada_1">
	<rect class="st0" width="676.9" height="163.8"/>
	<g>
		<path class="st1" d="M171.6,81.9c0-4.7,0.9-9.3,2.6-13.9c1.7-4.6,4.2-8.7,7.5-12.3c3.3-3.6,7.3-6.6,12-8.8
			c4.7-2.2,10.1-3.4,16.1-3.4c7.2,0,13.5,1.5,18.8,4.6c5.3,3.1,9.2,7.2,11.8,12.2l-15.7,11.5c-0.7-1.9-1.6-3.4-2.8-4.7
			c-1.2-1.2-2.4-2.2-3.8-2.9c-1.4-0.7-2.9-1.2-4.4-1.5c-1.5-0.3-3-0.4-4.4-0.4c-2.9,0-5.5,0.6-7.6,1.8c-2.1,1.2-3.9,2.8-5.3,4.7
			c-1.4,1.9-2.4,4.1-3,6.5c-0.7,2.4-1,4.8-1,7.2c0,2.7,0.4,5.2,1.2,7.7c0.8,2.5,1.9,4.6,3.4,6.5c1.5,1.9,3.3,3.4,5.4,4.5
			c2.1,1.1,4.5,1.7,7.2,1.7c1.4,0,2.8-0.2,4.3-0.5c1.5-0.3,2.9-0.9,4.3-1.6c1.4-0.8,2.6-1.7,3.7-2.9c1.1-1.2,1.9-2.7,2.6-4.4
			l16.7,10.3c-1.1,2.8-2.8,5.4-5.1,7.6c-2.3,2.2-4.9,4.1-7.8,5.6c-2.9,1.5-6,2.7-9.4,3.5c-3.3,0.8-6.6,1.2-9.7,1.2
			c-5.5,0-10.6-1.1-15.2-3.4c-4.6-2.3-8.6-5.3-11.9-9.1c-3.3-3.8-5.9-8-7.7-12.8C172.6,91.7,171.6,86.8,171.6,81.9z"/>
		<path class="st1" d="M280.9,121.8c-5.7,0-10.8-1.1-15.5-3.4c-4.6-2.2-8.6-5.2-11.9-8.9c-3.3-3.7-5.9-7.8-7.7-12.5
			c-1.8-4.7-2.7-9.6-2.7-14.6c0-5.1,0.9-10,2.8-14.7c1.9-4.7,4.5-8.9,7.9-12.4c3.4-3.6,7.4-6.4,12.1-8.6c4.7-2.1,9.8-3.2,15.3-3.2
			c5.7,0,10.8,1.1,15.5,3.4c4.6,2.2,8.6,5.2,11.9,8.9c3.3,3.7,5.8,7.9,7.6,12.6c1.8,4.7,2.7,9.5,2.7,14.4c0,5.1-0.9,9.9-2.8,14.6
			c-1.9,4.7-4.5,8.8-7.9,12.4c-3.4,3.6-7.4,6.5-12,8.6C291.6,120.7,286.5,121.8,280.9,121.8z M264,82.7c0,2.6,0.4,5.1,1.1,7.5
			c0.7,2.4,1.8,4.6,3.2,6.5c1.4,1.9,3.2,3.4,5.3,4.6c2.1,1.2,4.7,1.7,7.6,1.7s5.5-0.6,7.7-1.8c2.2-1.2,3.9-2.7,5.3-4.7
			c1.4-1.9,2.4-4.1,3-6.6c0.7-2.5,1-5,1-7.5c0-2.6-0.4-5.1-1.1-7.5c-0.7-2.4-1.8-4.6-3.2-6.4c-1.4-1.8-3.2-3.3-5.4-4.5
			c-2.1-1.1-4.6-1.7-7.5-1.7c-2.9,0-5.5,0.6-7.6,1.7c-2.1,1.2-3.9,2.7-5.3,4.6c-1.4,1.9-2.4,4.1-3.1,6.5
			C264.3,77.6,264,80.1,264,82.7z"/>
		<path class="st1" d="M327.7,121.1V44h20.5v58.6h33.9v18.5H327.7z"/>
		<path class="st1" d="M445.7,121.1V80.5L433.2,109h-10.9l-12.5-28.6v40.6h-20.5V44h22.4l16.1,36.3L443.9,44h22.3v77.1H445.7z"/>
		<path class="st1" d="M532.3,102.6v18.5h-53.2V44h52.3v18.5h-31.8v10.9h27.1v17.2h-27.1v12.2H532.3z"/>
		<path class="st1" d="M541.8,121.1V44h20.5v77.1H541.8z"/>
		<path class="st1" d="M594.5,44h18.7l25.9,77.1h-20.8l-4.5-15.1h-19.9l-4.4,15.1h-20.9L594.5,44z M610.5,91.9L603.9,68l-6.9,23.9
			H610.5z"/>
	</g>
	<g>
		<path class="st1" d="M133.4,69.2c-0.1-12-5.1-20-14.3-25.3c-9.3-5.3-18.9-5.1-27.8,0.7c-4.4,2.8-7.3,2.7-11.7-0.1
			c-9.5-6.1-19.5-5.9-29,0.2c-9.2,5.9-14.4,14.6-12.6,25.4L133.4,69.2z"/>
		<path class="st1" d="M47.2,94.4c26.3,0,50.9,0,76.7,0c-4.5,9.2-9,14.6-19.3,14.6c-12,0.1-22.9,0.1-36,0
			C58.1,109,52.7,104.3,47.2,94.4z"/>
		<path class="st1" d="M37.7,74.9h96.1c-0.4,8.8-0.4,15.7-24.2,14.6c-15-0.7-28.6,0-45.1,0C37.7,89.6,37.7,86.2,37.7,74.9z"/>
		<path class="st1" d="M65.7,113.8c13.5,0,26.3,0,39.7,0C87.2,129.9,85.1,130.2,65.7,113.8z"/>
	</g>
</g>
<g id="guias">
</g>
</svg>
